<svg width="380" height="43" viewBox="0 0 380 43" fill="none" xmlns="http://www.w3.org/2000/svg">
<path d="M11.268 5.512H14.4L25.308 31H21.276L18.72 24.7H6.588L4.068 31H0.036L11.268 5.512ZM12.636 9.976L7.812 21.676H17.46L12.708 9.976H12.636ZM37.0837 13.504C42.0517 13.504 45.7237 17.104 45.7237 22.468C45.7237 27.724 42.1597 31.432 37.0477 31.432C34.5637 31.432 32.2237 30.28 31.1077 28.552H31.0357V41.152H27.7957V13.936H31.0357V16.384H31.1077C32.4037 14.548 34.6357 13.504 37.0837 13.504ZM31.0357 22.468C31.0357 25.996 33.2677 28.408 36.6517 28.408C40.0357 28.408 42.2677 26.068 42.2677 22.468C42.2677 18.868 39.9637 16.528 36.6157 16.528C33.3397 16.528 31.0357 18.868 31.0357 22.468ZM59.0915 13.504C64.0595 13.504 67.7315 17.104 67.7315 22.468C67.7315 27.724 64.1675 31.432 59.0555 31.432C56.5715 31.432 54.2315 30.28 53.1155 28.552H53.0435V41.152H49.8035V13.936H53.0435V16.384H53.1155C54.4115 14.548 56.6435 13.504 59.0915 13.504ZM53.0435 22.468C53.0435 25.996 55.2755 28.408 58.6595 28.408C62.0435 28.408 64.2755 26.068 64.2755 22.468C64.2755 18.868 61.9715 16.528 58.6235 16.528C55.3475 16.528 53.0435 18.868 53.0435 22.468ZM79.6233 13.504C84.6633 13.504 87.9393 16.852 87.9393 22.756V23.656H74.2593C74.2593 26.608 77.0313 28.624 80.0193 28.624C81.9993 28.624 83.4393 27.616 84.6993 26.068L87.1473 27.94C85.3113 30.28 82.8633 31.432 79.5873 31.432C74.5113 31.432 70.8033 27.904 70.8033 22.468C70.8033 17.428 74.4393 13.504 79.6233 13.504ZM74.2593 21.064H84.4833C84.3753 17.86 82.5753 16.096 79.5513 16.096C76.1313 16.096 74.2593 19.012 74.2593 21.064ZM100.743 13.504C104.559 13.504 106.935 16.024 106.935 19.876V31H103.695V20.812C103.695 18.184 102.255 16.528 99.8072 16.528C96.8192 16.528 95.0552 18.652 95.0552 22.072V31H91.8152V13.936H95.0552V16.564H95.1272C96.0272 14.656 98.2592 13.504 100.743 13.504ZM125.679 3.784H128.919V31H125.679V28.552H125.607C124.347 30.388 122.043 31.432 119.667 31.432C114.627 31.432 110.991 27.76 110.991 22.468C110.991 17.176 114.627 13.504 119.667 13.504C122.007 13.504 124.383 14.548 125.607 16.384H125.679V3.784ZM114.447 22.468C114.447 26.032 116.715 28.408 120.063 28.408C123.447 28.408 125.679 25.996 125.679 22.468C125.679 18.868 123.375 16.528 120.027 16.528C116.715 16.528 114.447 18.904 114.447 22.468ZM135.734 5.44C137.03 5.44 138.11 6.52 138.11 7.816C138.11 9.148 136.994 10.192 135.734 10.192C134.402 10.192 133.358 9.148 133.358 7.816C133.358 6.484 134.474 5.44 135.734 5.44ZM134.114 13.936H137.354V31H134.114V13.936ZM141.143 13.936H145.319L149.459 19.984L153.527 13.936H157.451L151.619 21.892L158.531 31H154.355L149.314 23.836L144.275 31H140.279L147.191 21.892L141.143 13.936ZM183.726 4.864C191.106 4.864 197.01 10.3 197.01 18.256C197.01 25.744 191.538 31.648 183.726 31.648C176.274 31.648 170.442 26.068 170.442 18.256C170.442 10.588 176.094 4.864 183.726 4.864ZM174.114 18.256C174.114 23.8 177.858 28.408 183.726 28.408C189.306 28.408 193.338 24.052 193.338 18.256C193.338 12.64 189.558 8.104 183.69 8.104C178.146 8.104 174.114 12.46 174.114 18.256ZM199.099 13.936H202.843L207.955 27.004L212.851 13.936H216.307L209.611 31H206.047L199.099 13.936ZM226.963 13.504C232.003 13.504 235.279 16.852 235.279 22.756V23.656H221.599C221.599 26.608 224.371 28.624 227.359 28.624C229.339 28.624 230.779 27.616 232.039 26.068L234.487 27.94C232.651 30.28 230.203 31.432 226.927 31.432C221.851 31.432 218.143 27.904 218.143 22.468C218.143 17.428 221.779 13.504 226.963 13.504ZM221.599 21.064H231.823C231.715 17.86 229.915 16.096 226.891 16.096C223.471 16.096 221.599 19.012 221.599 21.064ZM247.579 13.504C248.119 13.504 248.659 13.576 249.019 13.72L248.875 17.212C248.335 17.068 247.831 16.96 247.255 16.96C244.051 16.96 242.395 18.832 242.395 22.288V31H239.155V13.936H242.395V16.564H242.467C243.331 14.728 245.455 13.504 247.579 13.504ZM250.427 13.936H254.171L259.283 27.004L264.179 13.936H267.635L260.939 31H257.375L250.427 13.936ZM272.351 5.44C273.647 5.44 274.727 6.52 274.727 7.816C274.727 9.148 273.611 10.192 272.351 10.192C271.019 10.192 269.975 9.148 269.975 7.816C269.975 6.484 271.091 5.44 272.351 5.44ZM270.731 13.936H273.971V31H270.731V13.936ZM286.94 13.504C291.98 13.504 295.256 16.852 295.256 22.756V23.656H281.576C281.576 26.608 284.348 28.624 287.336 28.624C289.316 28.624 290.756 27.616 292.016 26.068L294.464 27.94C292.628 30.28 290.18 31.432 286.904 31.432C281.828 31.432 278.12 27.904 278.12 22.468C278.12 17.428 281.756 13.504 286.94 13.504ZM281.576 21.064H291.8C291.692 17.86 289.892 16.096 286.868 16.096C283.448 16.096 281.576 19.012 281.576 21.064ZM297.08 13.936H300.716L304.568 26.68H304.64L308.708 13.936H312.128L316.448 26.68H316.52L320.192 13.936H323.612L318.104 31H314.828L310.328 18.256H310.256L306.188 31H302.696L297.08 13.936Z" fill="#4F4F4F"/>
</svg>
