<svg width="380" height="43" viewBox="0 0 380 43" fill="none" xmlns="http://www.w3.org/2000/svg">
<path d="M14.976 4.864C18.576 4.864 21.924 6.268 23.904 8.824L21.024 11.02C19.512 9.112 17.244 8.104 14.868 8.104C9.18 8.104 5.364 12.676 5.364 18.472C5.364 23.944 9.072 28.408 14.868 28.408C17.82 28.408 19.98 27.148 21.528 24.988L24.444 27.184C22.464 29.848 18.9 31.648 14.796 31.648C6.588 31.648 1.692 24.736 1.692 18.436C1.692 10.732 6.948 4.864 14.976 4.864ZM27.7957 3.784H31.0357V16.564H31.1077C32.0077 14.656 34.2397 13.504 36.7237 13.504C40.5037 13.504 42.9157 15.988 42.9157 19.876V31H39.6757V20.812C39.6757 18.184 38.2357 16.528 35.7877 16.528C32.7997 16.528 31.0357 18.652 31.0357 22.072V31H27.7957V3.784ZM54.6396 13.504C59.7876 13.504 61.7676 16.42 61.7676 19.084V28.228C61.7676 28.732 61.8036 30.1 61.9116 31H59.0316C58.9596 30.136 58.9236 29.416 58.9236 28.408H58.8516C57.3756 30.604 55.4676 31.432 52.8756 31.432C49.4556 31.432 46.9716 29.488 46.9716 26.32C46.9716 22.9 49.6356 20.416 56.3316 20.416H58.7436V19.804C58.7436 17.5 57.0516 16.096 54.6396 16.096C52.8036 16.096 51.6876 16.528 49.8156 18.04L47.8716 16.024C49.6716 14.368 52.1916 13.504 54.6396 13.504ZM50.2116 26.068C50.2116 27.832 51.3996 28.84 53.8836 28.84C56.7996 28.84 58.7436 27.04 58.7436 23.728V22.792H56.9076C51.6516 22.792 50.2116 24.412 50.2116 26.068ZM66.7195 3.784H69.9595V31H66.7195V3.784ZM75.4031 3.784H78.6431V31H75.4031V3.784ZM91.6116 13.504C96.6516 13.504 99.9276 16.852 99.9276 22.756V23.656H86.2476C86.2476 26.608 89.0196 28.624 92.0076 28.624C93.9876 28.624 95.4276 27.616 96.6876 26.068L99.1356 27.94C97.2996 30.28 94.8516 31.432 91.5756 31.432C86.4996 31.432 82.7916 27.904 82.7916 22.468C82.7916 17.428 86.4276 13.504 91.6116 13.504ZM86.2476 21.064H96.4716C96.3636 17.86 94.5636 16.096 91.5396 16.096C88.1196 16.096 86.2476 19.012 86.2476 21.064ZM112.731 13.504C116.547 13.504 118.923 16.024 118.923 19.876V31H115.683V20.812C115.683 18.184 114.243 16.528 111.795 16.528C108.807 16.528 107.043 18.652 107.043 22.072V31H103.803V13.936H107.043V16.564H107.115C108.015 14.656 110.247 13.504 112.731 13.504ZM131.655 13.504C134.067 13.504 136.335 14.584 137.595 16.384H137.667V13.936H140.907V31C140.907 35.572 137.559 39.64 131.583 39.64C128.343 39.64 125.607 38.812 123.231 36.58L125.427 33.844C127.119 35.644 128.991 36.616 131.547 36.616C135.579 36.616 137.667 34.384 137.667 30.784V28.192H137.559C136.407 30.172 134.103 31.216 131.655 31.216C126.867 31.216 122.979 27.688 122.979 22.54C122.979 17.068 126.651 13.504 131.655 13.504ZM126.435 22.468C126.435 25.852 128.559 28.192 132.051 28.192C135.471 28.192 137.667 25.96 137.667 22.468C137.667 18.868 135.363 16.528 132.015 16.528C128.703 16.528 126.435 18.976 126.435 22.468ZM153.627 13.504C158.667 13.504 161.943 16.852 161.943 22.756V23.656H148.263C148.263 26.608 151.035 28.624 154.023 28.624C156.003 28.624 157.443 27.616 158.703 26.068L161.151 27.94C159.315 30.28 156.867 31.432 153.591 31.432C148.515 31.432 144.807 27.904 144.807 22.468C144.807 17.428 148.443 13.504 153.627 13.504ZM148.263 21.064H158.487C158.379 17.86 156.579 16.096 153.555 16.096C150.135 16.096 148.263 19.012 148.263 21.064ZM184.695 5.08C188.511 5.08 191.283 7.204 191.283 10.84C191.283 13.396 189.591 15.52 185.991 17.392L191.031 22.648L194.235 17.428H198.159L193.227 25.06L199.023 31H194.379L191.247 27.616C188.979 30.388 186.675 31.648 183.435 31.648C177.783 31.648 175.083 28.048 175.083 24.268C175.083 21.352 176.811 18.94 180.879 16.96C178.683 14.656 177.891 13 177.891 11.056C177.891 7.456 180.771 5.08 184.695 5.08ZM181.347 11.092C181.347 12.28 182.067 13.612 183.867 15.34C186.999 13.684 187.827 12.352 187.827 10.84C187.827 9.184 186.567 8.104 184.695 8.104C182.823 8.104 181.347 9.256 181.347 11.092ZM178.755 24.16C178.755 26.644 181.059 28.624 183.543 28.624C185.415 28.624 187.251 27.724 189.195 25.384L183.039 18.976C181.095 20.128 178.755 21.424 178.755 24.16ZM212.667 5.512H216.123V27.76H227.823V31H212.667V5.512ZM238.319 13.504C243.359 13.504 246.635 16.852 246.635 22.756V23.656H232.955C232.955 26.608 235.727 28.624 238.715 28.624C240.695 28.624 242.135 27.616 243.395 26.068L245.843 27.94C244.007 30.28 241.559 31.432 238.283 31.432C233.207 31.432 229.499 27.904 229.499 22.468C229.499 17.428 233.135 13.504 238.319 13.504ZM232.955 21.064H243.179C243.071 17.86 241.271 16.096 238.247 16.096C234.827 16.096 232.955 19.012 232.955 21.064ZM257.351 13.504C262.499 13.504 264.479 16.42 264.479 19.084V28.228C264.479 28.732 264.515 30.1 264.623 31H261.743C261.671 30.136 261.635 29.416 261.635 28.408H261.563C260.087 30.604 258.179 31.432 255.587 31.432C252.167 31.432 249.683 29.488 249.683 26.32C249.683 22.9 252.347 20.416 259.043 20.416H261.455V19.804C261.455 17.5 259.763 16.096 257.351 16.096C255.515 16.096 254.399 16.528 252.527 18.04L250.583 16.024C252.383 14.368 254.903 13.504 257.351 13.504ZM252.923 26.068C252.923 27.832 254.111 28.84 256.595 28.84C259.511 28.84 261.455 27.04 261.455 23.728V22.792H259.619C254.363 22.792 252.923 24.412 252.923 26.068ZM277.602 13.504C278.142 13.504 278.682 13.576 279.042 13.72L278.898 17.212C278.358 17.068 277.854 16.96 277.278 16.96C274.074 16.96 272.418 18.832 272.418 22.288V31H269.178V13.936H272.418V16.564H272.49C273.354 14.728 275.478 13.504 277.602 13.504ZM291.431 13.504C295.247 13.504 297.623 16.024 297.623 19.876V31H294.383V20.812C294.383 18.184 292.943 16.528 290.495 16.528C287.507 16.528 285.743 18.652 285.743 22.072V31H282.503V13.936H285.743V16.564H285.815C286.715 14.656 288.947 13.504 291.431 13.504ZM304.379 5.44C305.675 5.44 306.755 6.52 306.755 7.816C306.755 9.148 305.639 10.192 304.379 10.192C303.047 10.192 302.003 9.148 302.003 7.816C302.003 6.484 303.119 5.44 304.379 5.44ZM302.759 13.936H305.999V31H302.759V13.936ZM320.083 13.504C323.899 13.504 326.275 16.024 326.275 19.876V31H323.035V20.812C323.035 18.184 321.595 16.528 319.147 16.528C316.159 16.528 314.395 18.652 314.395 22.072V31H311.155V13.936H314.395V16.564H314.467C315.367 14.656 317.599 13.504 320.083 13.504ZM339.007 13.504C341.419 13.504 343.687 14.584 344.947 16.384H345.019V13.936H348.259V31C348.259 35.572 344.911 39.64 338.935 39.64C335.695 39.64 332.959 38.812 330.583 36.58L332.779 33.844C334.471 35.644 336.343 36.616 338.899 36.616C342.931 36.616 345.019 34.384 345.019 30.784V28.192H344.911C343.759 30.172 341.455 31.216 339.007 31.216C334.219 31.216 330.331 27.688 330.331 22.54C330.331 17.068 334.003 13.504 339.007 13.504ZM333.787 22.468C333.787 25.852 335.911 28.192 339.403 28.192C342.823 28.192 345.019 25.96 345.019 22.468C345.019 18.868 342.715 16.528 339.367 16.528C336.055 16.528 333.787 18.976 333.787 22.468ZM358.927 13.504C361.519 13.504 363.679 14.512 364.759 16.312L362.239 18.22C361.447 17.284 360.367 16.528 358.747 16.528C357.127 16.528 355.903 17.32 355.903 18.436C355.903 19.84 357.271 20.488 359.251 20.884C363.319 21.676 365.227 22.972 365.227 26.068C365.227 29.812 361.843 31.432 358.279 31.432C355.147 31.432 353.203 30.46 351.727 28.408L354.175 26.392C355.651 27.904 356.911 28.408 358.315 28.408C360.115 28.408 361.771 27.652 361.771 26.248C361.771 24.952 360.583 24.268 358.531 23.8C354.535 22.972 352.447 21.856 352.447 18.76C352.447 15.232 355.687 13.504 358.927 13.504Z" fill="#4F4F4F"/>
</svg>
