<svg width="385" height="43" viewBox="0 0 385 43" fill="none" xmlns="http://www.w3.org/2000/svg">
<path d="M14.976 4.864C18.576 4.864 21.924 6.268 23.904 8.824L21.024 11.02C19.512 9.112 17.244 8.104 14.868 8.104C9.18 8.104 5.364 12.676 5.364 18.472C5.364 23.944 9.072 28.408 14.868 28.408C17.82 28.408 19.98 27.148 21.528 24.988L24.444 27.184C22.464 29.848 18.9 31.648 14.796 31.648C6.588 31.648 1.692 24.736 1.692 18.436C1.692 10.732 6.948 4.864 14.976 4.864ZM36.0397 13.504C40.8637 13.504 45.1117 17.248 45.1117 22.468C45.1117 27.436 41.1157 31.432 36.0397 31.432C31.1077 31.432 26.9677 27.544 26.9677 22.468C26.9677 17.5 30.9637 13.504 36.0397 13.504ZM30.4237 22.468C30.4237 26.032 32.6917 28.408 36.0397 28.408C39.4237 28.408 41.6557 25.996 41.6557 22.468C41.6557 18.868 39.3517 16.528 36.0037 16.528C32.6917 16.528 30.4237 18.976 30.4237 22.468ZM57.7387 13.504C60.2587 13.504 61.9507 14.548 63.0667 16.672C64.1467 14.692 66.2347 13.504 68.4667 13.504C72.7867 13.504 74.9467 16.06 74.9467 20.92V31H71.7067V21.316C71.7067 17.968 70.5187 16.528 68.0347 16.528C65.1187 16.528 63.6787 18.436 63.6787 21.532V31H60.4387V21.82C60.4387 17.788 59.2507 16.528 56.8387 16.528C54.1747 16.528 52.4107 18.76 52.4107 22V31H49.1707V13.936H52.1947V16.6H52.2667C52.9507 15.016 55.2187 13.504 57.7387 13.504ZM88.3949 13.504C90.9149 13.504 92.6069 14.548 93.7229 16.672C94.8029 14.692 96.8909 13.504 99.1229 13.504C103.443 13.504 105.603 16.06 105.603 20.92V31H102.363V21.316C102.363 17.968 101.175 16.528 98.6909 16.528C95.7749 16.528 94.3349 18.436 94.3349 21.532V31H91.0949V21.82C91.0949 17.788 89.9069 16.528 87.4949 16.528C84.8309 16.528 83.0669 18.76 83.0669 22V31H79.8269V13.936H82.8509V16.6H82.9229C83.6069 15.016 85.8749 13.504 88.3949 13.504ZM110.483 13.936H113.723V24.16C113.723 26.824 115.199 28.408 117.611 28.408C120.635 28.408 122.363 26.248 122.363 22.864V13.936H125.603V31H122.363V28.372H122.291C121.391 30.28 119.195 31.432 116.675 31.432C112.895 31.432 110.483 28.912 110.483 25.06V13.936ZM139.415 13.504C143.231 13.504 145.607 16.024 145.607 19.876V31H142.367V20.812C142.367 18.184 140.927 16.528 138.479 16.528C135.491 16.528 133.727 18.652 133.727 22.072V31H130.487V13.936H133.727V16.564H133.799C134.699 14.656 136.931 13.504 139.415 13.504ZM152.363 5.44C153.659 5.44 154.739 6.52 154.739 7.816C154.739 9.148 153.623 10.192 152.363 10.192C151.031 10.192 149.987 9.148 149.987 7.816C149.987 6.484 151.103 5.44 152.363 5.44ZM150.743 13.936H153.983V31H150.743V13.936ZM167.239 13.54C169.723 13.54 172.099 14.404 173.791 16.24L171.343 18.472C170.155 17.212 168.895 16.564 167.095 16.564C163.855 16.564 161.767 19.084 161.767 22.612C161.767 25.924 164.035 28.408 167.275 28.408C169.111 28.408 170.299 27.76 171.415 26.5L173.719 28.804C172.027 30.712 169.723 31.432 167.239 31.432C161.983 31.432 158.311 27.796 158.311 22.54C158.311 17.212 162.019 13.54 167.239 13.54ZM183.347 13.504C188.495 13.504 190.475 16.42 190.475 19.084V28.228C190.475 28.732 190.511 30.1 190.619 31H187.739C187.667 30.136 187.631 29.416 187.631 28.408H187.559C186.083 30.604 184.175 31.432 181.583 31.432C178.163 31.432 175.679 29.488 175.679 26.32C175.679 22.9 178.343 20.416 185.039 20.416H187.451V19.804C187.451 17.5 185.759 16.096 183.347 16.096C181.511 16.096 180.395 16.528 178.523 18.04L176.579 16.024C178.379 14.368 180.899 13.504 183.347 13.504ZM178.919 26.068C178.919 27.832 180.107 28.84 182.591 28.84C185.507 28.84 187.451 27.04 187.451 23.728V22.792H185.615C180.359 22.792 178.919 24.412 178.919 26.068ZM196.435 9.148H199.675V13.936H204.319V16.744H199.675V24.952C199.675 27.148 200.107 28.408 202.123 28.408C202.843 28.408 203.779 28.3 204.427 27.904V30.856C203.815 31.216 202.411 31.432 201.475 31.432C196.471 31.432 196.435 28.192 196.435 25.852V16.744H192.691V13.936H196.435V9.148ZM210.406 5.44C211.702 5.44 212.782 6.52 212.782 7.816C212.782 9.148 211.666 10.192 210.406 10.192C209.074 10.192 208.03 9.148 208.03 7.816C208.03 6.484 209.146 5.44 210.406 5.44ZM208.786 13.936H212.026V31H208.786V13.936ZM225.426 13.504C230.25 13.504 234.498 17.248 234.498 22.468C234.498 27.436 230.502 31.432 225.426 31.432C220.494 31.432 216.354 27.544 216.354 22.468C216.354 17.5 220.35 13.504 225.426 13.504ZM219.81 22.468C219.81 26.032 222.078 28.408 225.426 28.408C228.81 28.408 231.042 25.996 231.042 22.468C231.042 18.868 228.738 16.528 225.39 16.528C222.078 16.528 219.81 18.976 219.81 22.468ZM247.485 13.504C251.301 13.504 253.677 16.024 253.677 19.876V31H250.437V20.812C250.437 18.184 248.997 16.528 246.549 16.528C243.561 16.528 241.797 18.652 241.797 22.072V31H238.557V13.936H241.797V16.564H241.869C242.769 14.656 245.001 13.504 247.485 13.504ZM268.833 5.512H277.905C287.085 5.512 291.117 11.992 291.117 18.256C291.117 25.564 285.393 31 277.365 31H268.833V5.512ZM272.289 27.76H276.825C281.649 27.76 287.445 25.132 287.445 18.256C287.445 13.396 284.385 8.752 277.653 8.752H272.289V27.76ZM303.076 13.504C308.116 13.504 311.392 16.852 311.392 22.756V23.656H297.712C297.712 26.608 300.484 28.624 303.472 28.624C305.452 28.624 306.892 27.616 308.152 26.068L310.6 27.94C308.764 30.28 306.316 31.432 303.04 31.432C297.964 31.432 294.256 27.904 294.256 22.468C294.256 17.428 297.892 13.504 303.076 13.504ZM297.712 21.064H307.936C307.828 17.86 306.028 16.096 303.004 16.096C299.584 16.096 297.712 19.012 297.712 21.064ZM321.028 13.504C323.62 13.504 325.78 14.512 326.86 16.312L324.34 18.22C323.548 17.284 322.468 16.528 320.848 16.528C319.228 16.528 318.004 17.32 318.004 18.436C318.004 19.84 319.372 20.488 321.352 20.884C325.42 21.676 327.328 22.972 327.328 26.068C327.328 29.812 323.944 31.432 320.38 31.432C317.248 31.432 315.304 30.46 313.828 28.408L316.276 26.392C317.752 27.904 319.012 28.408 320.416 28.408C322.216 28.408 323.872 27.652 323.872 26.248C323.872 24.952 322.684 24.268 320.632 23.8C316.636 22.972 314.548 21.856 314.548 18.76C314.548 15.232 317.788 13.504 321.028 13.504ZM333.136 5.44C334.432 5.44 335.512 6.52 335.512 7.816C335.512 9.148 334.396 10.192 333.136 10.192C331.804 10.192 330.76 9.148 330.76 7.816C330.76 6.484 331.876 5.44 333.136 5.44ZM331.516 13.936H334.756V31H331.516V13.936ZM347.761 13.504C350.173 13.504 352.441 14.584 353.701 16.384H353.773V13.936H357.013V31C357.013 35.572 353.665 39.64 347.689 39.64C344.449 39.64 341.713 38.812 339.337 36.58L341.533 33.844C343.225 35.644 345.097 36.616 347.653 36.616C351.685 36.616 353.773 34.384 353.773 30.784V28.192H353.665C352.513 30.172 350.209 31.216 347.761 31.216C342.973 31.216 339.085 27.688 339.085 22.54C339.085 17.068 342.757 13.504 347.761 13.504ZM342.541 22.468C342.541 25.852 344.665 28.192 348.157 28.192C351.577 28.192 353.773 25.96 353.773 22.468C353.773 18.868 351.469 16.528 348.121 16.528C344.809 16.528 342.541 18.976 342.541 22.468ZM370.849 13.504C374.665 13.504 377.041 16.024 377.041 19.876V31H373.801V20.812C373.801 18.184 372.361 16.528 369.913 16.528C366.925 16.528 365.161 18.652 365.161 22.072V31H361.921V13.936H365.161V16.564H365.233C366.133 14.656 368.365 13.504 370.849 13.504Z" fill="#4F4F4F"/>
</svg>
