<svg width="380" height="43" viewBox="0 0 380 43" fill="none" xmlns="http://www.w3.org/2000/svg">
<path d="M3.276 5.512H6.732V16.096H19.944V5.512H23.4V31H19.944V19.336H6.732V31H3.276V5.512ZM35.9716 13.504C41.1196 13.504 43.0996 16.42 43.0996 19.084V28.228C43.0996 28.732 43.1356 30.1 43.2436 31H40.3636C40.2916 30.136 40.2556 29.416 40.2556 28.408H40.1836C38.7076 30.604 36.7996 31.432 34.2076 31.432C30.7876 31.432 28.3036 29.488 28.3036 26.32C28.3036 22.9 30.9676 20.416 37.6636 20.416H40.0756V19.804C40.0756 17.5 38.3836 16.096 35.9716 16.096C34.1356 16.096 33.0196 16.528 31.1476 18.04L29.2036 16.024C31.0036 14.368 33.5236 13.504 35.9716 13.504ZM31.5436 26.068C31.5436 27.832 32.7316 28.84 35.2156 28.84C38.1316 28.84 40.0756 27.04 40.0756 23.728V22.792H38.2396C32.9836 22.792 31.5436 24.412 31.5436 26.068ZM56.2236 13.504C56.7636 13.504 57.3036 13.576 57.6636 13.72L57.5196 17.212C56.9796 17.068 56.4756 16.96 55.8996 16.96C52.6956 16.96 51.0396 18.832 51.0396 22.288V31H47.7996V13.936H51.0396V16.564H51.1116C51.9756 14.728 54.0996 13.504 56.2236 13.504ZM74.351 3.784H77.591V31H74.351V28.552H74.279C73.019 30.388 70.715 31.432 68.339 31.432C63.299 31.432 59.663 27.76 59.663 22.468C59.663 17.176 63.299 13.504 68.339 13.504C70.679 13.504 73.055 14.548 74.279 16.384H74.351V3.784ZM63.119 22.468C63.119 26.032 65.387 28.408 68.735 28.408C72.119 28.408 74.351 25.996 74.351 22.468C74.351 18.868 72.047 16.528 68.699 16.528C65.387 16.528 63.119 18.904 63.119 22.468ZM80.4468 13.936H84.0828L87.9348 26.68H88.0068L92.0748 13.936H95.4948L99.8148 26.68H99.8868L103.559 13.936H106.979L101.471 31H98.1948L93.6948 18.256H93.6228L89.5548 31H86.0628L80.4468 13.936ZM116.655 13.504C121.803 13.504 123.783 16.42 123.783 19.084V28.228C123.783 28.732 123.819 30.1 123.927 31H121.047C120.975 30.136 120.939 29.416 120.939 28.408H120.867C119.391 30.604 117.483 31.432 114.891 31.432C111.471 31.432 108.987 29.488 108.987 26.32C108.987 22.9 111.651 20.416 118.347 20.416H120.759V19.804C120.759 17.5 119.067 16.096 116.655 16.096C114.819 16.096 113.703 16.528 111.831 18.04L109.887 16.024C111.687 14.368 114.207 13.504 116.655 13.504ZM112.227 26.068C112.227 27.832 113.415 28.84 115.899 28.84C118.815 28.84 120.759 27.04 120.759 23.728V22.792H118.923C113.667 22.792 112.227 24.412 112.227 26.068ZM136.907 13.504C137.447 13.504 137.987 13.576 138.347 13.72L138.203 17.212C137.663 17.068 137.159 16.96 136.583 16.96C133.379 16.96 131.723 18.832 131.723 22.288V31H128.483V13.936H131.723V16.564H131.795C132.659 14.728 134.783 13.504 136.907 13.504ZM148.987 13.504C154.027 13.504 157.303 16.852 157.303 22.756V23.656H143.623C143.623 26.608 146.395 28.624 149.383 28.624C151.363 28.624 152.803 27.616 154.063 26.068L156.511 27.94C154.675 30.28 152.227 31.432 148.951 31.432C143.875 31.432 140.167 27.904 140.167 22.468C140.167 17.428 143.803 13.504 148.987 13.504ZM143.623 21.064H153.847C153.739 17.86 151.939 16.096 148.915 16.096C145.495 16.096 143.623 19.012 143.623 21.064ZM171.45 5.512H180.522C189.702 5.512 193.734 11.992 193.734 18.256C193.734 25.564 188.01 31 179.982 31H171.45V5.512ZM174.906 27.76H179.442C184.266 27.76 190.062 25.132 190.062 18.256C190.062 13.396 187.002 8.752 180.27 8.752H174.906V27.76ZM205.694 13.504C210.734 13.504 214.01 16.852 214.01 22.756V23.656H200.33C200.33 26.608 203.102 28.624 206.09 28.624C208.07 28.624 209.51 27.616 210.77 26.068L213.218 27.94C211.382 30.28 208.934 31.432 205.658 31.432C200.582 31.432 196.874 27.904 196.874 22.468C196.874 17.428 200.51 13.504 205.694 13.504ZM200.33 21.064H210.554C210.446 17.86 208.646 16.096 205.622 16.096C202.202 16.096 200.33 19.012 200.33 21.064ZM219.758 5.44C221.054 5.44 222.134 6.52 222.134 7.816C222.134 9.148 221.018 10.192 219.758 10.192C218.426 10.192 217.382 9.148 217.382 7.816C217.382 6.484 218.498 5.44 219.758 5.44ZM218.138 13.936H221.378V31H218.138V13.936ZM234.382 13.504C236.794 13.504 239.062 14.584 240.322 16.384H240.394V13.936H243.634V31C243.634 35.572 240.286 39.64 234.31 39.64C231.07 39.64 228.334 38.812 225.958 36.58L228.154 33.844C229.846 35.644 231.718 36.616 234.274 36.616C238.306 36.616 240.394 34.384 240.394 30.784V28.192H240.286C239.134 30.172 236.83 31.216 234.382 31.216C229.594 31.216 225.706 27.688 225.706 22.54C225.706 17.068 229.378 13.504 234.382 13.504ZM229.162 22.468C229.162 25.852 231.286 28.192 234.778 28.192C238.198 28.192 240.394 25.96 240.394 22.468C240.394 18.868 238.09 16.528 234.742 16.528C231.43 16.528 229.162 18.976 229.162 22.468ZM257.47 13.504C261.286 13.504 263.662 16.024 263.662 19.876V31H260.422V20.812C260.422 18.184 258.982 16.528 256.534 16.528C253.546 16.528 251.782 18.652 251.782 22.072V31H248.542V13.936H251.782V16.564H251.854C252.754 14.656 254.986 13.504 257.47 13.504Z" fill="#4F4F4F"/>
</svg>
