<svg width="156" height="32" viewBox="0 0 156 32" fill="none" xmlns="http://www.w3.org/2000/svg">
<path d="M13.312 3.768C19.872 3.768 25.12 8.6 25.12 15.672C25.12 22.328 20.256 27.576 13.312 27.576C6.688 27.576 1.504 22.616 1.504 15.672C1.504 8.856 6.528 3.768 13.312 3.768ZM4.768 15.672C4.768 20.6 8.096 24.696 13.312 24.696C18.272 24.696 21.856 20.824 21.856 15.672C21.856 10.68 18.496 6.648 13.28 6.648C8.352 6.648 4.768 10.52 4.768 15.672ZM26.977 11.832H30.305L34.849 23.448L39.201 11.832H42.273L36.321 27H33.153L26.977 11.832ZM51.745 11.448C56.225 11.448 59.137 14.424 59.137 19.672V20.472H46.977C46.977 23.096 49.441 24.888 52.097 24.888C53.857 24.888 55.137 23.992 56.257 22.616L58.433 24.28C56.801 26.36 54.625 27.384 51.713 27.384C47.201 27.384 43.905 24.248 43.905 19.416C43.905 14.936 47.137 11.448 51.745 11.448ZM46.977 18.168H56.065C55.969 15.32 54.369 13.752 51.681 13.752C48.641 13.752 46.977 16.344 46.977 18.168ZM70.0703 11.448C70.5503 11.448 71.0303 11.512 71.3503 11.64L71.2223 14.744C70.7423 14.616 70.2943 14.52 69.7823 14.52C66.9343 14.52 65.4623 16.184 65.4623 19.256V27H62.5823V11.832H65.4623V14.168H65.5263C66.2943 12.536 68.1823 11.448 70.0703 11.448ZM72.602 11.832H75.93L80.474 23.448L84.826 11.832H87.898L81.946 27H78.778L72.602 11.832ZM92.09 4.28C93.242 4.28 94.202 5.24 94.202 6.392C94.202 7.576 93.21 8.504 92.09 8.504C90.906 8.504 89.978 7.576 89.978 6.392C89.978 5.208 90.97 4.28 92.09 4.28ZM90.65 11.832H93.53V27H90.65V11.832ZM105.058 11.448C109.538 11.448 112.45 14.424 112.45 19.672V20.472H100.29C100.29 23.096 102.754 24.888 105.41 24.888C107.17 24.888 108.45 23.992 109.57 22.616L111.746 24.28C110.114 26.36 107.938 27.384 105.026 27.384C100.514 27.384 97.2175 24.248 97.2175 19.416C97.2175 14.936 100.45 11.448 105.058 11.448ZM100.29 18.168H109.378C109.282 15.32 107.682 13.752 104.994 13.752C101.954 13.752 100.29 16.344 100.29 18.168ZM114.071 11.832H117.303L120.727 23.16H120.791L124.407 11.832H127.447L131.287 23.16H131.351L134.615 11.832H137.655L132.759 27H129.847L125.847 15.672H125.783L122.167 27H119.063L114.071 11.832Z" fill="#4D4D4D"/>
</svg>
