<svg width="380" height="43" viewBox="0 0 380 43" fill="none" xmlns="http://www.w3.org/2000/svg">
<path d="M3.276 5.512H12.42C17.316 5.512 20.412 8.068 20.412 12.64C20.412 17.248 17.244 19.768 12.42 19.768H6.732V31H3.276V5.512ZM6.732 16.744H11.412C14.976 16.744 16.74 15.448 16.74 12.64C16.74 9.868 14.94 8.536 11.412 8.536H6.732V16.744ZM32.0318 13.504C36.8558 13.504 41.1038 17.248 41.1038 22.468C41.1038 27.436 37.1078 31.432 32.0318 31.432C27.0998 31.432 22.9598 27.544 22.9598 22.468C22.9598 17.5 26.9558 13.504 32.0318 13.504ZM26.4158 22.468C26.4158 26.032 28.6838 28.408 32.0318 28.408C35.4158 28.408 37.6478 25.996 37.6478 22.468C37.6478 18.868 35.3438 16.528 31.9958 16.528C28.6838 16.528 26.4158 18.976 26.4158 22.468ZM43.1108 13.936H46.7468L50.5988 26.68H50.6708L54.7388 13.936H58.1588L62.4788 26.68H62.5508L66.2228 13.936H69.6428L64.1348 31H60.8588L56.3588 18.256H56.2868L52.2188 31H48.7268L43.1108 13.936ZM80.2913 13.504C85.3313 13.504 88.6073 16.852 88.6073 22.756V23.656H74.9273C74.9273 26.608 77.6993 28.624 80.6873 28.624C82.6673 28.624 84.1073 27.616 85.3673 26.068L87.8153 27.94C85.9793 30.28 83.5313 31.432 80.2553 31.432C75.1793 31.432 71.4713 27.904 71.4713 22.468C71.4713 17.428 75.1073 13.504 80.2913 13.504ZM74.9273 21.064H85.1513C85.0433 17.86 83.2433 16.096 80.2193 16.096C76.7993 16.096 74.9273 19.012 74.9273 21.064ZM100.907 13.504C101.447 13.504 101.987 13.576 102.347 13.72L102.203 17.212C101.663 17.068 101.159 16.96 100.583 16.96C97.3792 16.96 95.7232 18.832 95.7232 22.288V31H92.4832V13.936H95.7232V16.564H95.7952C96.6592 14.728 98.7832 13.504 100.907 13.504ZM116.403 5.512H121.551L129.651 24.808H129.795L137.823 5.512H142.971V31H139.515V10.048H139.443L130.839 31H128.535L119.931 10.048H119.859V31H116.403V5.512ZM155.292 13.504C160.44 13.504 162.42 16.42 162.42 19.084V28.228C162.42 28.732 162.456 30.1 162.564 31H159.684C159.612 30.136 159.576 29.416 159.576 28.408H159.504C158.028 30.604 156.12 31.432 153.528 31.432C150.108 31.432 147.624 29.488 147.624 26.32C147.624 22.9 150.288 20.416 156.984 20.416H159.396V19.804C159.396 17.5 157.704 16.096 155.292 16.096C153.456 16.096 152.34 16.528 150.468 18.04L148.524 16.024C150.324 14.368 152.844 13.504 155.292 13.504ZM150.864 26.068C150.864 27.832 152.052 28.84 154.536 28.84C157.452 28.84 159.396 27.04 159.396 23.728V22.792H157.56C152.304 22.792 150.864 24.412 150.864 26.068ZM176.048 13.504C179.864 13.504 182.24 16.024 182.24 19.876V31H179V20.812C179 18.184 177.56 16.528 175.112 16.528C172.124 16.528 170.36 18.652 170.36 22.072V31H167.12V13.936H170.36V16.564H170.432C171.332 14.656 173.564 13.504 176.048 13.504ZM193.964 13.504C199.112 13.504 201.092 16.42 201.092 19.084V28.228C201.092 28.732 201.128 30.1 201.236 31H198.356C198.284 30.136 198.248 29.416 198.248 28.408H198.176C196.7 30.604 194.792 31.432 192.2 31.432C188.78 31.432 186.296 29.488 186.296 26.32C186.296 22.9 188.96 20.416 195.656 20.416H198.068V19.804C198.068 17.5 196.376 16.096 193.964 16.096C192.128 16.096 191.012 16.528 189.14 18.04L187.196 16.024C188.996 14.368 191.516 13.504 193.964 13.504ZM189.536 26.068C189.536 27.832 190.724 28.84 193.208 28.84C196.124 28.84 198.068 27.04 198.068 23.728V22.792H196.232C190.976 22.792 189.536 24.412 189.536 26.068ZM213.64 13.504C216.052 13.504 218.32 14.584 219.58 16.384H219.652V13.936H222.892V31C222.892 35.572 219.544 39.64 213.568 39.64C210.328 39.64 207.592 38.812 205.216 36.58L207.412 33.844C209.104 35.644 210.976 36.616 213.532 36.616C217.564 36.616 219.652 34.384 219.652 30.784V28.192H219.544C218.392 30.172 216.088 31.216 213.64 31.216C208.852 31.216 204.964 27.688 204.964 22.54C204.964 17.068 208.636 13.504 213.64 13.504ZM208.42 22.468C208.42 25.852 210.544 28.192 214.036 28.192C217.456 28.192 219.652 25.96 219.652 22.468C219.652 18.868 217.348 16.528 214 16.528C210.688 16.528 208.42 18.976 208.42 22.468ZM235.612 13.504C240.652 13.504 243.928 16.852 243.928 22.756V23.656H230.248C230.248 26.608 233.02 28.624 236.008 28.624C237.988 28.624 239.428 27.616 240.688 26.068L243.136 27.94C241.3 30.28 238.852 31.432 235.576 31.432C230.5 31.432 226.792 27.904 226.792 22.468C226.792 17.428 230.428 13.504 235.612 13.504ZM230.248 21.064H240.472C240.364 17.86 238.564 16.096 235.54 16.096C232.12 16.096 230.248 19.012 230.248 21.064ZM256.371 13.504C258.891 13.504 260.583 14.548 261.699 16.672C262.779 14.692 264.867 13.504 267.099 13.504C271.419 13.504 273.579 16.06 273.579 20.92V31H270.339V21.316C270.339 17.968 269.151 16.528 266.667 16.528C263.751 16.528 262.311 18.436 262.311 21.532V31H259.071V21.82C259.071 17.788 257.883 16.528 255.471 16.528C252.807 16.528 251.043 18.76 251.043 22V31H247.803V13.936H250.827V16.6H250.899C251.583 15.016 253.851 13.504 256.371 13.504ZM286.272 13.504C291.312 13.504 294.588 16.852 294.588 22.756V23.656H280.908C280.908 26.608 283.68 28.624 286.668 28.624C288.648 28.624 290.088 27.616 291.348 26.068L293.796 27.94C291.96 30.28 289.512 31.432 286.236 31.432C281.16 31.432 277.452 27.904 277.452 22.468C277.452 17.428 281.088 13.504 286.272 13.504ZM280.908 21.064H291.132C291.024 17.86 289.224 16.096 286.2 16.096C282.78 16.096 280.908 19.012 280.908 21.064ZM307.392 13.504C311.208 13.504 313.584 16.024 313.584 19.876V31H310.344V20.812C310.344 18.184 308.904 16.528 306.456 16.528C303.468 16.528 301.704 18.652 301.704 22.072V31H298.464V13.936H301.704V16.564H301.776C302.676 14.656 304.908 13.504 307.392 13.504ZM319.728 9.148H322.968V13.936H327.612V16.744H322.968V24.952C322.968 27.148 323.4 28.408 325.416 28.408C326.136 28.408 327.072 28.3 327.72 27.904V30.856C327.108 31.216 325.704 31.432 324.768 31.432C319.764 31.432 319.728 28.192 319.728 25.852V16.744H315.984V13.936H319.728V9.148Z" fill="#4F4F4F"/>
</svg>
