<svg width="380" height="43" viewBox="0 0 380 43" fill="none" xmlns="http://www.w3.org/2000/svg">
<path d="M3.276 5.512H12.42C17.316 5.512 20.412 8.068 20.412 12.64C20.412 17.248 17.244 19.768 12.42 19.768H6.732V31H3.276V5.512ZM6.732 16.744H11.412C14.976 16.744 16.74 15.448 16.74 12.64C16.74 9.868 14.94 8.536 11.412 8.536H6.732V16.744ZM32.2118 13.504C32.7518 13.504 33.2918 13.576 33.6518 13.72L33.5078 17.212C32.9678 17.068 32.4638 16.96 31.8878 16.96C28.6838 16.96 27.0278 18.832 27.0278 22.288V31H23.7878V13.936H27.0278V16.564H27.0998C27.9638 14.728 30.0878 13.504 32.2118 13.504ZM44.7233 13.504C49.5473 13.504 53.7953 17.248 53.7953 22.468C53.7953 27.436 49.7993 31.432 44.7233 31.432C39.7913 31.432 35.6513 27.544 35.6513 22.468C35.6513 17.5 39.6473 13.504 44.7233 13.504ZM39.1073 22.468C39.1073 26.032 41.3753 28.408 44.7233 28.408C48.1073 28.408 50.3393 25.996 50.3393 22.468C50.3393 18.868 48.0353 16.528 44.6873 16.528C41.3753 16.528 39.1073 18.976 39.1073 22.468ZM59.7263 5.44C61.0223 5.44 62.1023 6.52 62.1023 7.816C62.1023 9.148 60.9863 10.192 59.7263 10.192C58.3943 10.192 57.3503 9.148 57.3503 7.816C57.3503 6.484 58.4663 5.44 59.7263 5.44ZM58.1063 13.936H61.3463V33.628C61.3463 37.84 59.5103 39.64 56.1263 39.64C55.4062 39.64 54.7222 39.568 54.0382 39.316L54.3982 36.328C54.9742 36.508 55.3342 36.616 55.7303 36.616C57.5303 36.616 58.1063 35.392 58.1063 33.448V13.936ZM74.3147 13.504C79.3547 13.504 82.6307 16.852 82.6307 22.756V23.656H68.9507C68.9507 26.608 71.7227 28.624 74.7107 28.624C76.6907 28.624 78.1307 27.616 79.3907 26.068L81.8387 27.94C80.0027 30.28 77.5547 31.432 74.2787 31.432C69.2027 31.432 65.4947 27.904 65.4947 22.468C65.4947 17.428 69.1307 13.504 74.3147 13.504ZM68.9507 21.064H79.1747C79.0667 17.86 77.2667 16.096 74.2427 16.096C70.8227 16.096 68.9507 19.012 68.9507 21.064ZM94.6066 13.54C97.0906 13.54 99.4666 14.404 101.159 16.24L98.7106 18.472C97.5226 17.212 96.2626 16.564 94.4626 16.564C91.2226 16.564 89.1346 19.084 89.1346 22.612C89.1346 25.924 91.4026 28.408 94.6426 28.408C96.4786 28.408 97.6666 27.76 98.7826 26.5L101.087 28.804C99.3946 30.712 97.0906 31.432 94.6066 31.432C89.3506 31.432 85.6786 27.796 85.6786 22.54C85.6786 17.212 89.3866 13.54 94.6066 13.54ZM105.134 9.148H108.374V13.936H113.018V16.744H108.374V24.952C108.374 27.148 108.806 28.408 110.822 28.408C111.542 28.408 112.478 28.3 113.126 27.904V30.856C112.514 31.216 111.11 31.432 110.174 31.432C105.17 31.432 105.134 28.192 105.134 25.852V16.744H101.39V13.936H105.134V9.148ZM139.746 4.864C147.126 4.864 153.03 10.3 153.03 18.256C153.03 25.744 147.558 31.648 139.746 31.648C132.294 31.648 126.462 26.068 126.462 18.256C126.462 10.588 132.114 4.864 139.746 4.864ZM130.134 18.256C130.134 23.8 133.878 28.408 139.746 28.408C145.326 28.408 149.358 24.052 149.358 18.256C149.358 12.64 145.578 8.104 139.71 8.104C134.166 8.104 130.134 12.46 130.134 18.256ZM155.119 13.936H158.863L163.975 27.004L168.871 13.936H172.327L165.631 31H162.067L155.119 13.936ZM182.983 13.504C188.023 13.504 191.299 16.852 191.299 22.756V23.656H177.619C177.619 26.608 180.391 28.624 183.379 28.624C185.359 28.624 186.799 27.616 188.059 26.068L190.507 27.94C188.671 30.28 186.223 31.432 182.947 31.432C177.871 31.432 174.163 27.904 174.163 22.468C174.163 17.428 177.799 13.504 182.983 13.504ZM177.619 21.064H187.843C187.735 17.86 185.935 16.096 182.911 16.096C179.491 16.096 177.619 19.012 177.619 21.064ZM203.599 13.504C204.139 13.504 204.679 13.576 205.039 13.72L204.895 17.212C204.355 17.068 203.851 16.96 203.275 16.96C200.071 16.96 198.415 18.832 198.415 22.288V31H195.175V13.936H198.415V16.564H198.487C199.351 14.728 201.475 13.504 203.599 13.504ZM206.447 13.936H210.191L215.303 27.004L220.199 13.936H223.655L216.959 31H213.395L206.447 13.936ZM228.371 5.44C229.667 5.44 230.747 6.52 230.747 7.816C230.747 9.148 229.631 10.192 228.371 10.192C227.039 10.192 225.995 9.148 225.995 7.816C225.995 6.484 227.111 5.44 228.371 5.44ZM226.751 13.936H229.991V31H226.751V13.936ZM242.959 13.504C247.999 13.504 251.275 16.852 251.275 22.756V23.656H237.595C237.595 26.608 240.367 28.624 243.355 28.624C245.335 28.624 246.775 27.616 248.035 26.068L250.483 27.94C248.647 30.28 246.199 31.432 242.923 31.432C237.847 31.432 234.139 27.904 234.139 22.468C234.139 17.428 237.775 13.504 242.959 13.504ZM237.595 21.064H247.819C247.711 17.86 245.911 16.096 242.887 16.096C239.467 16.096 237.595 19.012 237.595 21.064ZM253.099 13.936H256.735L260.587 26.68H260.659L264.727 13.936H268.147L272.467 26.68H272.539L276.211 13.936H279.631L274.123 31H270.847L266.347 18.256H266.275L262.207 31H258.715L253.099 13.936Z" fill="#4F4F4F"/>
</svg>
