<svg width="380" height="43" viewBox="0 0 380 43" fill="none" xmlns="http://www.w3.org/2000/svg">
<path d="M10.584 4.864C14.22 4.864 16.452 5.944 17.928 7.78L15.12 10.336C14.256 9.004 12.6 8.104 10.548 8.104C6.624 8.104 5.616 10.552 5.616 12.028C5.616 14.188 7.092 15.34 9.432 16.06L12.636 17.104C16.2 18.256 18.18 20.164 18.18 23.764C18.18 28.48 14.472 31.648 9.324 31.648C5.724 31.648 2.844 30.352 1.188 28.12L4.032 25.672C5.148 27.4 7.2 28.408 9.432 28.408C11.988 28.408 14.508 26.788 14.508 24.16C14.508 22.396 13.464 21.28 10.368 20.308L8.1 19.552C4.608 18.436 1.944 16.6 1.944 12.028C1.944 8.644 4.824 4.864 10.584 4.864ZM20.3999 13.936H24.1439L29.2199 27.256H29.2919L34.1159 13.936H37.6079L29.5439 34.6C28.3559 37.696 27.2039 39.64 23.6759 39.64C22.6679 39.64 21.6959 39.532 20.7959 39.172L21.1919 36.256C21.8399 36.472 22.4879 36.616 23.1359 36.616C25.1519 36.616 25.7999 35.572 26.4839 33.772L27.4919 31.108L20.3999 13.936ZM46.2119 13.504C48.8039 13.504 50.9639 14.512 52.0439 16.312L49.5239 18.22C48.7319 17.284 47.6519 16.528 46.0319 16.528C44.4119 16.528 43.1879 17.32 43.1879 18.436C43.1879 19.84 44.5559 20.488 46.5359 20.884C50.6039 21.676 52.5119 22.972 52.5119 26.068C52.5119 29.812 49.1279 31.432 45.5639 31.432C42.4319 31.432 40.4879 30.46 39.0119 28.408L41.4599 26.392C42.9359 27.904 44.1959 28.408 45.5999 28.408C47.3999 28.408 49.0559 27.652 49.0559 26.248C49.0559 24.952 47.8679 24.268 45.8159 23.8C41.8199 22.972 39.7319 21.856 39.7319 18.76C39.7319 15.232 42.9719 13.504 46.2119 13.504ZM57.708 9.148H60.948V13.936H65.592V16.744H60.948V24.952C60.948 27.148 61.38 28.408 63.396 28.408C64.116 28.408 65.052 28.3 65.7 27.904V30.856C65.088 31.216 63.684 31.432 62.748 31.432C57.744 31.432 57.708 28.192 57.708 25.852V16.744H53.964V13.936H57.708V9.148ZM77.5842 13.504C82.6242 13.504 85.9002 16.852 85.9002 22.756V23.656H72.2202C72.2202 26.608 74.9922 28.624 77.9802 28.624C79.9602 28.624 81.4002 27.616 82.6602 26.068L85.1082 27.94C83.2722 30.28 80.8242 31.432 77.5482 31.432C72.4722 31.432 68.7642 27.904 68.7642 22.468C68.7642 17.428 72.4002 13.504 77.5842 13.504ZM72.2202 21.064H82.4442C82.3362 17.86 80.5362 16.096 77.5122 16.096C74.0922 16.096 72.2202 19.012 72.2202 21.064ZM98.3441 13.504C100.864 13.504 102.556 14.548 103.672 16.672C104.752 14.692 106.84 13.504 109.072 13.504C113.392 13.504 115.552 16.06 115.552 20.92V31H112.312V21.316C112.312 17.968 111.124 16.528 108.64 16.528C105.724 16.528 104.284 18.436 104.284 21.532V31H101.044V21.82C101.044 17.788 99.8561 16.528 97.4441 16.528C94.7801 16.528 93.0161 18.76 93.0161 22V31H89.7761V13.936H92.8001V16.6H92.8721C93.5561 15.016 95.8241 13.504 98.3441 13.504ZM139.272 5.512H142.404L153.312 31H149.28L146.724 24.7H134.592L132.072 31H128.04L139.272 5.512ZM140.64 9.976L135.816 21.676H145.464L140.712 9.976H140.64ZM164.224 13.504C164.764 13.504 165.304 13.576 165.664 13.72L165.52 17.212C164.98 17.068 164.476 16.96 163.9 16.96C160.696 16.96 159.04 18.832 159.04 22.288V31H155.8V13.936H159.04V16.564H159.112C159.976 14.728 162.1 13.504 164.224 13.504ZM176.591 13.54C179.075 13.54 181.451 14.404 183.143 16.24L180.695 18.472C179.507 17.212 178.247 16.564 176.447 16.564C173.207 16.564 171.119 19.084 171.119 22.612C171.119 25.924 173.387 28.408 176.627 28.408C178.463 28.408 179.651 27.76 180.767 26.5L183.071 28.804C181.379 30.712 179.075 31.432 176.591 31.432C171.335 31.432 167.663 27.796 167.663 22.54C167.663 17.212 171.371 13.54 176.591 13.54ZM185.858 3.784H189.098V16.564H189.17C190.07 14.656 192.302 13.504 194.786 13.504C198.566 13.504 200.978 15.988 200.978 19.876V31H197.738V20.812C197.738 18.184 196.298 16.528 193.85 16.528C190.862 16.528 189.098 18.652 189.098 22.072V31H185.858V3.784ZM207.734 5.44C209.03 5.44 210.11 6.52 210.11 7.816C210.11 9.148 208.994 10.192 207.734 10.192C206.402 10.192 205.358 9.148 205.358 7.816C205.358 6.484 206.474 5.44 207.734 5.44ZM206.114 13.936H209.354V31H206.114V13.936ZM215.771 9.148H219.011V13.936H223.655V16.744H219.011V24.952C219.011 27.148 219.443 28.408 221.459 28.408C222.179 28.408 223.115 28.3 223.763 27.904V30.856C223.151 31.216 221.747 31.432 220.811 31.432C215.807 31.432 215.771 28.192 215.771 25.852V16.744H212.026V13.936H215.771V9.148ZM235.647 13.504C240.687 13.504 243.963 16.852 243.963 22.756V23.656H230.283C230.283 26.608 233.055 28.624 236.043 28.624C238.023 28.624 239.463 27.616 240.723 26.068L243.171 27.94C241.335 30.28 238.887 31.432 235.611 31.432C230.535 31.432 226.827 27.904 226.827 22.468C226.827 17.428 230.463 13.504 235.647 13.504ZM230.283 21.064H240.507C240.399 17.86 238.599 16.096 235.575 16.096C232.155 16.096 230.283 19.012 230.283 21.064ZM255.939 13.54C258.423 13.54 260.799 14.404 262.491 16.24L260.043 18.472C258.855 17.212 257.595 16.564 255.795 16.564C252.555 16.564 250.467 19.084 250.467 22.612C250.467 25.924 252.735 28.408 255.975 28.408C257.811 28.408 258.999 27.76 260.115 26.5L262.419 28.804C260.727 30.712 258.423 31.432 255.939 31.432C250.683 31.432 247.011 27.796 247.011 22.54C247.011 17.212 250.719 13.54 255.939 13.54ZM266.466 9.148H269.706V13.936H274.35V16.744H269.706V24.952C269.706 27.148 270.138 28.408 272.154 28.408C272.874 28.408 273.81 28.3 274.458 27.904V30.856C273.846 31.216 272.442 31.432 271.506 31.432C266.502 31.432 266.466 28.192 266.466 25.852V16.744H262.722V13.936H266.466V9.148ZM278.53 13.936H281.77V24.16C281.77 26.824 283.246 28.408 285.658 28.408C288.682 28.408 290.41 26.248 290.41 22.864V13.936H293.65V31H290.41V28.372H290.338C289.438 30.28 287.242 31.432 284.722 31.432C280.942 31.432 278.53 28.912 278.53 25.06V13.936ZM306.958 13.504C307.498 13.504 308.038 13.576 308.398 13.72L308.254 17.212C307.714 17.068 307.21 16.96 306.634 16.96C303.43 16.96 301.774 18.832 301.774 22.288V31H298.534V13.936H301.774V16.564H301.846C302.71 14.728 304.834 13.504 306.958 13.504ZM319.037 13.504C324.077 13.504 327.353 16.852 327.353 22.756V23.656H313.673C313.673 26.608 316.445 28.624 319.433 28.624C321.413 28.624 322.853 27.616 324.113 26.068L326.561 27.94C324.725 30.28 322.277 31.432 319.001 31.432C313.925 31.432 310.217 27.904 310.217 22.468C310.217 17.428 313.853 13.504 319.037 13.504ZM313.673 21.064H323.897C323.789 17.86 321.989 16.096 318.965 16.096C315.545 16.096 313.673 19.012 313.673 21.064Z" fill="#4F4F4F"/>
</svg>
