<svg width="380" height="43" viewBox="0 0 380 43" fill="none" xmlns="http://www.w3.org/2000/svg">
<path d="M0.396 5.512H20.268V8.752H12.06V31H8.604V8.752H0.396V5.512ZM26.9241 13.504C31.9641 13.504 35.2401 16.852 35.2401 22.756V23.656H21.5601C21.5601 26.608 24.3321 28.624 27.3201 28.624C29.3001 28.624 30.7401 27.616 32.0001 26.068L34.4481 27.94C32.6121 30.28 30.1641 31.432 26.8881 31.432C21.8121 31.432 18.1041 27.904 18.1041 22.468C18.1041 17.428 21.7401 13.504 26.9241 13.504ZM21.5601 21.064H31.7841C31.6761 17.86 29.8761 16.096 26.8521 16.096C23.4321 16.096 21.5601 19.012 21.5601 21.064ZM47.216 13.54C49.7 13.54 52.076 14.404 53.768 16.24L51.32 18.472C50.132 17.212 48.872 16.564 47.072 16.564C43.832 16.564 41.744 19.084 41.744 22.612C41.744 25.924 44.012 28.408 47.252 28.408C49.088 28.408 50.276 27.76 51.392 26.5L53.696 28.804C52.004 30.712 49.7 31.432 47.216 31.432C41.96 31.432 38.288 27.796 38.288 22.54C38.288 17.212 41.996 13.54 47.216 13.54ZM56.4832 3.784H59.7232V16.564H59.7952C60.6952 14.656 62.9272 13.504 65.4112 13.504C69.1912 13.504 71.6032 15.988 71.6032 19.876V31H68.3632V20.812C68.3632 18.184 66.9232 16.528 64.4752 16.528C61.4872 16.528 59.7232 18.652 59.7232 22.072V31H56.4832V3.784ZM85.4151 13.504C89.2311 13.504 91.6071 16.024 91.6071 19.876V31H88.3671V20.812C88.3671 18.184 86.9271 16.528 84.4791 16.528C81.4911 16.528 79.7271 18.652 79.7271 22.072V31H76.4871V13.936H79.7271V16.564H79.7991C80.6991 14.656 82.9311 13.504 85.4151 13.504ZM98.363 5.44C99.659 5.44 100.739 6.52 100.739 7.816C100.739 9.148 99.623 10.192 98.363 10.192C97.031 10.192 95.987 9.148 95.987 7.816C95.987 6.484 97.103 5.44 98.363 5.44ZM96.743 13.936H99.983V31H96.743V13.936ZM113.239 13.54C115.723 13.54 118.099 14.404 119.791 16.24L117.343 18.472C116.155 17.212 114.895 16.564 113.095 16.564C109.855 16.564 107.767 19.084 107.767 22.612C107.767 25.924 110.035 28.408 113.275 28.408C115.111 28.408 116.299 27.76 117.415 26.5L119.719 28.804C118.027 30.712 115.723 31.432 113.239 31.432C107.983 31.432 104.311 27.796 104.311 22.54C104.311 17.212 108.019 13.54 113.239 13.54ZM129.347 13.504C134.495 13.504 136.475 16.42 136.475 19.084V28.228C136.475 28.732 136.511 30.1 136.619 31H133.739C133.667 30.136 133.631 29.416 133.631 28.408H133.559C132.083 30.604 130.175 31.432 127.583 31.432C124.163 31.432 121.679 29.488 121.679 26.32C121.679 22.9 124.343 20.416 131.039 20.416H133.451V19.804C133.451 17.5 131.759 16.096 129.347 16.096C127.511 16.096 126.395 16.528 124.523 18.04L122.579 16.024C124.379 14.368 126.899 13.504 129.347 13.504ZM124.919 26.068C124.919 27.832 126.107 28.84 128.591 28.84C131.507 28.84 133.451 27.04 133.451 23.728V22.792H131.615C126.359 22.792 124.919 24.412 124.919 26.068ZM141.427 3.784H144.667V31H141.427V3.784ZM160.095 5.512H169.167C178.347 5.512 182.379 11.992 182.379 18.256C182.379 25.564 176.655 31 168.627 31H160.095V5.512ZM163.551 27.76H168.087C172.911 27.76 178.707 25.132 178.707 18.256C178.707 13.396 175.647 8.752 168.915 8.752H163.551V27.76ZM194.338 13.504C199.378 13.504 202.654 16.852 202.654 22.756V23.656H188.974C188.974 26.608 191.746 28.624 194.734 28.624C196.714 28.624 198.154 27.616 199.414 26.068L201.862 27.94C200.026 30.28 197.578 31.432 194.302 31.432C189.226 31.432 185.518 27.904 185.518 22.468C185.518 17.428 189.154 13.504 194.338 13.504ZM188.974 21.064H199.198C199.09 17.86 197.29 16.096 194.266 16.096C190.846 16.096 188.974 19.012 188.974 21.064ZM212.29 13.504C214.882 13.504 217.042 14.512 218.122 16.312L215.602 18.22C214.81 17.284 213.73 16.528 212.11 16.528C210.49 16.528 209.266 17.32 209.266 18.436C209.266 19.84 210.634 20.488 212.614 20.884C216.682 21.676 218.59 22.972 218.59 26.068C218.59 29.812 215.206 31.432 211.642 31.432C208.51 31.432 206.566 30.46 205.09 28.408L207.538 26.392C209.014 27.904 210.274 28.408 211.678 28.408C213.478 28.408 215.134 27.652 215.134 26.248C215.134 24.952 213.946 24.268 211.894 23.8C207.898 22.972 205.81 21.856 205.81 18.76C205.81 15.232 209.05 13.504 212.29 13.504ZM224.398 5.44C225.694 5.44 226.774 6.52 226.774 7.816C226.774 9.148 225.658 10.192 224.398 10.192C223.066 10.192 222.022 9.148 222.022 7.816C222.022 6.484 223.138 5.44 224.398 5.44ZM222.778 13.936H226.018V31H222.778V13.936ZM239.023 13.504C241.435 13.504 243.703 14.584 244.963 16.384H245.035V13.936H248.275V31C248.275 35.572 244.927 39.64 238.951 39.64C235.711 39.64 232.975 38.812 230.599 36.58L232.795 33.844C234.487 35.644 236.359 36.616 238.915 36.616C242.947 36.616 245.035 34.384 245.035 30.784V28.192H244.927C243.775 30.172 241.471 31.216 239.023 31.216C234.235 31.216 230.347 27.688 230.347 22.54C230.347 17.068 234.019 13.504 239.023 13.504ZM233.803 22.468C233.803 25.852 235.927 28.192 239.419 28.192C242.839 28.192 245.035 25.96 245.035 22.468C245.035 18.868 242.731 16.528 239.383 16.528C236.071 16.528 233.803 18.976 233.803 22.468ZM262.11 13.504C265.926 13.504 268.302 16.024 268.302 19.876V31H265.062V20.812C265.062 18.184 263.622 16.528 261.174 16.528C258.186 16.528 256.422 18.652 256.422 22.072V31H253.182V13.936H256.422V16.564H256.494C257.394 14.656 259.626 13.504 262.11 13.504Z" fill="#4F4F4F"/>
</svg>
